<?xml version="1.0" encoding="UTF-8" standalone="no"?>
<!-- Created with Inkscape (http://www.inkscape.org/) -->

<svg
   width="210.87291mm"
   height="216.16458mm"
   viewBox="0 0 210.87291 216.16458"
   version="1.1"
   id="svg5"
   xml:space="preserve"
   inkscape:version="1.2.2 (732a01da63, 2022-12-09)"
   sodipodi:docname="Logo.svg"
   xmlns:inkscape="http://www.inkscape.org/namespaces/inkscape"
   xmlns:sodipodi="http://sodipodi.sourceforge.net/DTD/sodipodi-0.dtd"
   xmlns="http://www.w3.org/2000/svg"
   xmlns:svg="http://www.w3.org/2000/svg"><sodipodi:namedview
     id="namedview7"
     pagecolor="#ffffff"
     bordercolor="#000000"
     borderopacity="0.25"
     inkscape:showpageshadow="2"
     inkscape:pageopacity="0.0"
     inkscape:pagecheckerboard="0"
     inkscape:deskcolor="#d1d1d1"
     inkscape:document-units="mm"
     showgrid="false"
     inkscape:zoom="0.66142459"
     inkscape:cx="515.55386"
     inkscape:cy="458.10211"
     inkscape:window-width="1366"
     inkscape:window-height="705"
     inkscape:window-x="-8"
     inkscape:window-y="-8"
     inkscape:window-maximized="1"
     inkscape:current-layer="layer1" /><defs
     id="defs2" /><g
     inkscape:label="Capa 1"
     inkscape:groupmode="layer"
     id="layer1"
     transform="translate(12.659312,-36.740566)"><path
       style="fill:#000000;stroke-width:0.264583"
       d="m 106.10367,208.64246 c -2.05522,-0.73258 -3.51656,-2.8488 -3.29766,-4.77546 0.0879,-0.77329 0.12296,-0.79054 1.76639,-0.86833 1.85507,-0.0878 2.28804,0.12568 2.51049,1.23794 0.2672,1.33599 2.50262,1.68649 3.26154,0.51139 0.12328,-0.19088 0.28367,-3.38314 0.35643,-7.09392 l 0.1323,-6.74688 h 1.98437 1.98438 l 0.0792,6.61459 c 0.0508,4.24343 -0.0246,6.97182 -0.21038,7.61115 -0.37951,1.30615 -1.71652,2.80283 -3.04154,3.40478 -1.28134,0.5821 -4.03962,0.63438 -5.52551,0.10474 z m -55.073922,-0.19709 c -0.07272,-0.18951 -0.100763,-4.21311 -0.06232,-8.94136 l 0.06989,-8.59681 h 1.984375 1.984375 l 0.07429,3.24115 c 0.04086,1.78263 0.159922,3.24108 0.264583,3.24101 0.104662,-8e-5 1.014582,-1.10141 2.022044,-2.4474 3.181294,-4.25028 3.068876,-4.16705 5.628486,-4.16705 1.852401,0 2.197055,0.0675 2.197055,0.4303 0,0.23666 -1.250156,2.02137 -2.778125,3.966 -1.527968,1.94464 -2.778124,3.59442 -2.778124,3.66617 0,0.0718 1.309687,2.13749 2.910416,4.59051 1.600729,2.45302 2.910417,4.65774 2.910417,4.89937 0,0.37496 -0.329925,0.43932 -2.252245,0.43932 h -2.252244 l -0.970047,-1.52136 c -0.533525,-0.83674 -1.494639,-2.34199 -2.135809,-3.34499 l -1.165768,-1.82364 -0.705173,0.70396 c -0.643003,0.6419 -0.716835,0.93097 -0.837464,3.27885 l -0.132292,2.57489 -1.922055,0.0778 c -1.392695,0.0564 -1.958469,-0.0171 -2.05427,-0.26673 z m 16.66875,0 c -0.07272,-0.18951 -0.100764,-4.21311 -0.06232,-8.94136 l 0.06989,-8.59681 h 1.984375 1.984375 l 0.132291,3.43959 0.132292,3.43958 h 3.042708 3.042709 l 0.132291,-3.43958 0.132292,-3.43959 h 1.984375 1.984375 v 8.86354 8.86355 h -1.984375 -1.984375 l -0.132292,-3.57188 -0.132291,-3.57187 h -3.042709 -3.042708 l -0.132292,3.57187 -0.132291,3.57188 -1.922055,0.0778 c -1.392695,0.0564 -1.95847,-0.0171 -2.05427,-0.26673 z m 17.356788,-0.0528 c -0.24502,-0.29523 0.0481,-1.33979 1.392113,-4.96094 0.936366,-2.52282 2.33087,-6.31336 3.098898,-8.42342 0.768027,-2.11005 1.510797,-3.98528 1.650595,-4.16718 0.155435,-0.20225 0.897133,-0.33073 1.90918,-0.33073 1.008774,0 1.756643,0.12913 1.915314,0.33073 0.462616,0.58775 6.447674,16.91992 6.363104,17.3638 -0.0642,0.33711 -0.47372,0.44644 -1.904926,0.50857 -1.053676,0.0457 -1.942872,-0.0406 -2.106858,-0.20459 -0.156057,-0.15606 -0.525537,-0.96558 -0.821066,-1.79894 l -0.537326,-1.5152 h -2.884083 -2.88408 l -0.483452,1.4223 c -0.265898,0.78226 -0.619262,1.58593 -0.785249,1.78593 -0.41898,0.50485 -3.501347,0.49672 -3.922164,-0.0103 z m 33.480974,-0.0396 c -0.24333,-0.63411 -0.18799,-16.86362 0.0588,-17.2525 0.16423,-0.25874 1.57658,-0.31953 6.14751,-0.26458 l 5.93431,0.0713 v 1.5875 1.5875 l -3.90261,0.0732 -3.9026,0.0732 v 1.84501 1.84501 h 3.15938 c 3.41376,0 3.47251,0.0243 3.63525,1.50105 0.19738,1.79109 -0.0786,1.93853 -3.62894,1.93853 h -3.16569 v 1.97731 1.9773 l 3.9026,0.0732 3.90261,0.0732 v 1.5875 1.5875 l -5.98909,0.071 c -5.28821,0.0627 -6.0081,0.0215 -6.15156,-0.35237 z m 14.78367,-0.18169 c -0.0798,-0.32742 -0.11188,-4.34578 -0.0712,-8.92968 l 0.074,-8.33438 h 5.95312 5.95313 v 1.5875 1.5875 l -3.69339,0.074 c -2.03136,0.0407 -3.75777,0.17733 -3.83646,0.30365 -0.0787,0.12632 -0.10314,1.01576 -0.0543,1.97655 l 0.0887,1.74687 h 3.28472 c 2.44059,0 3.28992,0.085 3.30496,0.33073 0.0111,0.1819 0.0714,0.56886 0.13386,0.8599 0.0625,0.29104 0.048,0.91612 -0.0322,1.38906 l -0.14584,0.8599 h -3.2953 -3.29531 l -0.004,2.97656 c -0.005,4.30959 0.0724,4.16719 -2.27117,4.16719 -1.80124,0 -1.95945,-0.045 -2.09365,-0.59532 z M 94.164405,171.94187 c -2.037291,-1.17942 -4.061354,-2.35192 -4.497916,-2.60555 -6.982709,-4.0567 -11.154547,-6.46261 -13.758333,-7.93447 -1.74625,-0.9871 -3.889375,-2.22005 -4.7625,-2.73987 -0.873125,-0.51981 -2.094349,-1.24369 -2.713831,-1.60861 l -1.126329,-0.6635 0.068,-17.92594 0.068,-17.92593 3.042708,-1.75287 c 1.673489,-0.96408 8.102864,-4.67486 14.287499,-8.24619 6.184636,-3.57133 11.743582,-6.75187 12.353213,-7.06786 l 1.108425,-0.57452 5.373869,3.09486 c 2.95563,1.70217 8.4695,4.88564 12.25304,7.07436 3.78354,2.18874 8.24838,4.77073 9.92187,5.73778 l 3.04271,1.75826 0.068,17.90365 0.068,17.90365 -0.99404,0.6312 c -2.17145,1.37884 -29.641293,17.1052 -29.862083,17.0959 -0.129865,-0.005 -1.902994,-0.97492 -3.940286,-2.15435 z m 17.727085,-9.59411 13.49375,-7.78774 0.0677,-15.95766 0.0677,-15.95766 -3.63955,-2.14042 c -2.00175,-1.17723 -5.24689,-3.068 -7.21143,-4.20171 -1.96453,-1.13371 -4.94109,-2.85764 -6.61458,-3.83095 -5.83182,-3.39183 -9.715015,-5.56963 -9.931101,-5.56963 -0.119671,0 -6.328034,3.52519 -13.796364,7.83376 l -13.578784,7.83375 v 15.963 15.96299 l 2.050521,1.17108 c 1.92205,1.0977 5.852615,3.36283 11.707812,6.74705 1.382448,0.79904 2.811198,1.61682 3.175,1.81729 0.363802,0.20047 2.745052,1.60005 5.291666,3.11017 2.546615,1.51011 4.808802,2.75664 5.027084,2.77004 0.218281,0.0134 6.469066,-3.4801 13.890626,-7.76336 z m -15.081251,-9.05074 c -0.436563,-0.22828 -1.686719,-0.93059 -2.778125,-1.56071 -3.442359,-1.98742 -3.386363,-1.96703 -4.325652,-1.57471 -0.797528,0.33311 -0.954331,0.28165 -3.611848,-1.18533 -1.616093,-0.8921 -2.91483,-1.795 -3.104954,-2.1586 -0.34748,-0.66454 -0.450652,-4.34441 -0.162235,-5.7865 0.129016,-0.64509 0.459777,-1.0362 1.314554,-1.55443 l 1.142158,-0.69245 0.01199,-2.51355 c 0.0066,-1.38244 0.0793,-2.76433 0.161575,-3.07085 0.0995,-0.37069 1.205768,-1.15531 3.303678,-2.34314 l 3.154071,-1.78583 v -1.14912 c 0,-0.98957 0.119399,-1.23745 0.859896,-1.78527 1.30361,-0.96441 4.833173,-2.83037 5.353788,-2.83037 0.425016,0 1.774087,0.67996 4.964965,2.50243 1.2295,0.70224 1.25677,0.74582 1.25677,2.00874 v 1.29092 l 2.90099,1.62455 c 1.59555,0.89351 3.05406,1.80911 3.24114,2.03467 0.18709,0.22556 0.34774,0.89771 0.357,1.49367 0.009,0.59596 0.039,1.86756 0.0661,2.82578 l 0.0493,1.74222 1.25677,0.63903 1.25677,0.63903 0.0744,2.93751 c 0.0409,1.61563 -0.0414,3.24211 -0.18291,3.61441 -0.1798,0.47293 -1.05131,1.12252 -2.89218,2.15572 -2.63556,1.47924 -3.37759,1.69473 -4.24225,1.23198 -0.35339,-0.18913 -1.29276,0.21206 -4.0175,1.71582 -1.95595,1.07946 -3.794389,1.95968 -4.085431,1.95604 -0.291041,-0.004 -0.886354,-0.19339 -1.322916,-0.42166 z m 4.127581,-3.15055 c 1.44061,-0.80855 2.61929,-1.52199 2.61929,-1.58541 0,-0.0634 -0.44325,-0.32461 -0.985,-0.58042 -0.54175,-0.25581 -1.1353,-0.76276 -1.31901,-1.12656 -0.4424,-0.87608 -0.44317,-5.47281 -0.001,-6.34659 0.201,-0.39727 1.32662,-1.21265 2.84037,-2.05751 2.21928,-1.23863 2.63803,-1.38384 3.64392,-1.26359 l 1.13649,0.13586 -0.0782,-1.77505 -0.0782,-1.77505 -1.98438,-1.11439 c -1.09141,-0.61291 -2.07368,-1.12229 -2.18282,-1.13195 -0.10914,-0.01 -0.19843,0.39766 -0.19843,0.90516 0,1.03467 -0.22567,1.21639 -4.12456,3.32133 l -2.14017,1.15545 -3.0192,-1.7124 c -2.937952,-1.66632 -3.021422,-1.73898 -3.101332,-2.69976 -0.04516,-0.54304 -0.119835,-0.98735 -0.165936,-0.98735 -0.0461,0 -1.021178,0.51776 -2.166839,1.15058 l -2.083023,1.15057 -0.07835,1.76492 -0.07835,1.76493 1.065032,-0.17031 c 0.946926,-0.15142 1.337056,-0.019 3.517935,1.19426 1.349094,0.75051 2.631493,1.46257 2.849774,1.58236 0.302186,0.16584 0.415914,0.84237 0.47667,2.83556 0.114935,3.77048 -0.0084,4.20981 -1.430488,5.09493 -1.281017,0.79733 -1.264481,0.89252 0.292359,1.68293 0.436563,0.22164 1.448594,0.77312 2.248959,1.2255 0.800364,0.45239 1.556448,0.82468 1.680186,0.82731 0.123735,0.003 1.403657,-0.65675 2.844273,-1.46531 z M -7.5678834,50.805062 c 0,-0.10868 0.267891,-0.269391 0.595312,-0.357137 1.072519,-0.287424 209.9673114,-0.190186 210.1453114,0.09782 0.10889,0.176197 -34.86469,0.275863 -104.69324,0.29835 -57.671217,0.01857 -105.1246494,0.06185 -105.4520714,0.09617 -0.327421,0.03432 -0.595312,-0.02652 -0.595312,-0.1352 z"
       id="path195" /></g></svg>
